<svg xmlns="http://www.w3.org/2000/svg" viewBox="0 0 512 768">
  <defs>
    <radialGradient id="crowdGlow" cx="50%" cy="46%" r="58%">
      <stop offset="0%" stop-color="#6f9bb3" stop-opacity="0.30"/>
      <stop offset="55%" stop-color="#6f9bb3" stop-opacity="0.09"/>
      <stop offset="100%" stop-color="#6f9bb3" stop-opacity="0"/>
    </radialGradient>
    <linearGradient id="crowdPane" x1="0" y1="0" x2="0" y2="1">
      <stop offset="0%" stop-color="#1e2a3d"/>
      <stop offset="100%" stop-color="#0a0e14"/>
    </linearGradient>
    <radialGradient id="eyePale" cx="50%" cy="50%" r="50%">
      <stop offset="0%" stop-color="#e8ead0" stop-opacity="0.95"/>
      <stop offset="38%" stop-color="#cdd6d0" stop-opacity="0.55"/>
      <stop offset="100%" stop-color="#cdd6d0" stop-opacity="0"/>
    </radialGradient>
    <radialGradient id="eyeCold" cx="50%" cy="50%" r="50%">
      <stop offset="0%" stop-color="#cdd6d0" stop-opacity="0.85"/>
      <stop offset="42%" stop-color="#6f9bb3" stop-opacity="0.45"/>
      <stop offset="100%" stop-color="#6f9bb3" stop-opacity="0"/>
    </radialGradient>
    <linearGradient id="figFront" x1="0" y1="0" x2="0" y2="1">
      <stop offset="0%" stop-color="#161e1c"/>
      <stop offset="100%" stop-color="#080b10"/>
    </linearGradient>
  </defs>

  <!-- window pane behind the glass -->
  <rect x="40" y="40" width="432" height="688" rx="6" fill="url(#crowdPane)"/>
  <ellipse cx="256" cy="360" rx="220" ry="300" fill="url(#crowdGlow)"/>

  <!-- ===== back row: distant gaunt shapes, just hints + eyes ===== -->
  <path d="M86 360 C82 300 100 250 126 250 C150 250 166 296 162 360 C160 470 162 600 158 700 L96 700 C92 600 90 470 86 360 Z" fill="#0c1118"/>
  <path d="M118 248 C112 214 124 192 142 192 C160 192 170 214 164 248 C160 280 150 296 142 296 C132 296 122 280 118 248 Z" fill="#0c1118"/>

  <path d="M352 360 C348 300 364 248 388 248 C412 248 428 298 424 360 C422 470 424 600 420 700 L362 700 C358 600 356 470 352 360 Z" fill="#0c1118"/>
  <path d="M380 246 C374 212 388 190 404 190 C422 190 432 212 426 246 C422 278 414 294 404 294 C394 294 386 278 380 246 Z" fill="#0c1118"/>

  <path d="M216 340 C212 286 228 244 250 244 C272 244 286 286 282 340 C280 460 282 600 280 700 L218 700 C216 600 218 460 216 340 Z" fill="#0a0e14"/>
  <path d="M240 244 C234 210 246 188 256 188 C268 188 280 210 274 244 C270 276 264 292 256 292 C246 292 244 276 240 244 Z" fill="#0a0e14"/>

  <!-- back-row pale eyes scattered in the dark -->
  <ellipse cx="132" cy="236" rx="8" ry="9" fill="url(#eyeCold)"/>
  <ellipse cx="152" cy="238" rx="8" ry="9" fill="url(#eyeCold)"/>
  <ellipse cx="394" cy="234" rx="8" ry="9" fill="url(#eyeCold)"/>
  <ellipse cx="414" cy="236" rx="8" ry="9" fill="url(#eyeCold)"/>
  <ellipse cx="248" cy="232" rx="8" ry="10" fill="url(#eyePale)"/>
  <ellipse cx="266" cy="232" rx="8" ry="10" fill="url(#eyePale)"/>

  <!-- tiny far eyes deeper in the gloom -->
  <circle cx="196" cy="300" r="4" fill="#cdd6d0" fill-opacity="0.5"/>
  <circle cx="210" cy="302" r="4" fill="#cdd6d0" fill-opacity="0.5"/>
  <circle cx="306" cy="296" r="4" fill="#cdd6d0" fill-opacity="0.5"/>
  <circle cx="320" cy="298" r="4" fill="#cdd6d0" fill-opacity="0.5"/>

  <!-- ===== mid row: two gaunt figures pressing in ===== -->
  <!-- left mid figure with thin neck + hollow belly -->
  <path d="M150 410 C146 360 158 322 176 322 C162 322 156 300 160 282 C164 262 176 250 190 250 C204 250 216 262 220 282 C224 300 218 322 204 322 C222 322 234 360 230 410 C236 470 236 560 232 700 L148 700 C146 560 144 470 150 410 Z" fill="#11161f"/>
  <ellipse cx="190" cy="470" rx="44" ry="46" fill="#0a0e14" fill-opacity="0.45"/>
  <path d="M178 300 C184 306 196 306 202 300" stroke="#0a0e14" stroke-width="2" stroke-opacity="0.4" fill="none"/>
  <!-- left mid eyes -->
  <ellipse cx="180" cy="290" rx="9" ry="11" fill="url(#eyePale)"/>
  <ellipse cx="200" cy="290" rx="9" ry="11" fill="url(#eyePale)"/>
  <circle cx="180" cy="291" r="3" fill="#0a0e14"/>
  <circle cx="200" cy="291" r="3" fill="#0a0e14"/>
  <ellipse cx="190" cy="318" rx="5" ry="7" fill="#0a0e14"/>

  <!-- right mid figure -->
  <path d="M282 410 C278 360 290 322 308 322 C294 322 288 300 292 282 C296 262 308 250 322 250 C336 250 348 262 352 282 C356 300 350 322 336 322 C354 322 366 360 362 410 C368 470 368 560 364 700 L280 700 C278 560 276 470 282 410 Z" fill="#0e141d"/>
  <ellipse cx="322" cy="470" rx="44" ry="46" fill="#0a0e14" fill-opacity="0.45"/>
  <path d="M310 300 C316 306 328 306 334 300" stroke="#0a0e14" stroke-width="2" stroke-opacity="0.4" fill="none"/>
  <!-- right mid eyes -->
  <ellipse cx="312" cy="290" rx="9" ry="11" fill="url(#eyeCold)"/>
  <ellipse cx="332" cy="290" rx="9" ry="11" fill="url(#eyeCold)"/>
  <circle cx="312" cy="291" r="3" fill="#0a0e14"/>
  <circle cx="332" cy="291" r="3" fill="#0a0e14"/>
  <ellipse cx="322" cy="318" rx="5" ry="7" fill="#0a0e14"/>

  <!-- ===== front figure: closest, palms + face pressed to the glass ===== -->
  <path d="M212 470 C206 410 222 368 248 368 C232 368 224 340 228 318 C232 292 244 278 256 278 C268 278 280 292 284 318 C288 340 280 368 264 368 C290 368 306 410 300 470 C308 540 308 620 304 712 L208 712 C204 620 204 540 212 470 Z" fill="url(#figFront)"/>
  <!-- hollow belly on front figure -->
  <ellipse cx="256" cy="520" rx="50" ry="54" fill="#0a0e14" fill-opacity="0.5"/>
  <path d="M232 392 C240 400 272 400 280 392" stroke="#0a0e14" stroke-width="2.5" stroke-opacity="0.4" fill="none"/>

  <!-- front hands flat on glass, fingers spread, gentle -->
  <path d="M214 452 C196 446 178 448 168 456 C172 470 188 476 206 472 Z" fill="#1a232d"/>
  <path d="M172 452 C170 442 172 438 176 440 M180 448 C180 438 182 436 186 438 M190 448 C192 440 196 440 198 444 M200 452 C204 446 208 448 208 452" stroke="#222e29" stroke-width="4" stroke-linecap="round" fill="none"/>

  <path d="M298 452 C316 446 334 448 344 456 C340 470 324 476 306 472 Z" fill="#1a232d"/>
  <path d="M340 452 C342 442 340 438 336 440 M332 448 C332 438 330 436 326 438 M322 448 C320 440 316 440 314 444 M312 452 C308 446 304 448 304 452" stroke="#222e29" stroke-width="4" stroke-linecap="round" fill="none"/>

  <!-- front face: gaunt, sunken cheeks -->
  <path d="M226 330 C232 348 240 356 248 360 C238 360 228 348 226 336 Z" fill="#0a0e14" fill-opacity="0.4"/>
  <path d="M286 330 C280 348 272 356 264 360 C274 360 284 348 286 336 Z" fill="#0a0e14" fill-opacity="0.4"/>

  <!-- front big hollow sad eyes -->
  <ellipse cx="240" cy="318" rx="13" ry="15" fill="#0a0e14"/>
  <ellipse cx="272" cy="318" rx="13" ry="15" fill="#0a0e14"/>
  <ellipse cx="240" cy="318" rx="11" ry="13" fill="url(#eyePale)"/>
  <ellipse cx="272" cy="318" rx="11" ry="13" fill="url(#eyePale)"/>
  <circle cx="240" cy="320" r="4" fill="#0a0e14"/>
  <circle cx="272" cy="320" r="4" fill="#0a0e14"/>
  <!-- drooping mournful brows -->
  <path d="M227 302 C233 296 245 296 252 302" stroke="#2b3a36" stroke-width="2.5" fill="none" stroke-linecap="round"/>
  <path d="M260 302 C267 296 279 296 285 302" stroke="#2b3a36" stroke-width="2.5" fill="none" stroke-linecap="round"/>
  <!-- nose hollow + small open hungry mouth -->
  <path d="M254 328 C250 338 250 344 256 348 C262 344 262 338 258 328 Z" fill="#0a0e14" fill-opacity="0.4"/>
  <ellipse cx="256" cy="358" rx="8" ry="11" fill="#0a0e14"/>
  <ellipse cx="256" cy="356" rx="5" ry="6" fill="#11161f"/>

  <!-- breath fog smudges on the cold glass -->
  <ellipse cx="256" cy="372" rx="26" ry="12" fill="#cdd6d0" fill-opacity="0.06"/>
  <ellipse cx="190" cy="332" rx="20" ry="9" fill="#cdd6d0" fill-opacity="0.05"/>
  <ellipse cx="322" cy="332" rx="20" ry="9" fill="#cdd6d0" fill-opacity="0.05"/>

  <!-- window frame + cross mullions over everything (CCTV-creepy) -->
  <rect x="40" y="40" width="432" height="688" rx="6" fill="none" stroke="#2b3a36" stroke-width="14"/>
  <rect x="40" y="40" width="432" height="688" rx="6" fill="none" stroke="#0a0e14" stroke-width="4"/>
  <rect x="248" y="40" width="16" height="688" fill="#2b3a36"/>
  <rect x="252" y="40" width="4" height="688" fill="#0a0e14" fill-opacity="0.6"/>
  <rect x="40" y="372" width="432" height="16" fill="#2b3a36"/>
  <rect x="40" y="376" width="432" height="4" fill="#0a0e14" fill-opacity="0.6"/>
  <!-- faint reflection streak on glass -->
  <path d="M88 60 L150 60 L96 700 L66 700 Z" fill="#6f9bb3" fill-opacity="0.05"/>
</svg>
