<svg xmlns="http://www.w3.org/2000/svg" viewBox="0 0 512 768">
  <defs>
    <radialGradient id="haloIdle" cx="0.5" cy="0.5" r="0.5">
      <stop offset="0" stop-color="#9fe6d6" stop-opacity="0.55"/>
      <stop offset="0.35" stop-color="#6fb3b3" stop-opacity="0.30"/>
      <stop offset="0.7" stop-color="#3a6a78" stop-opacity="0.10"/>
      <stop offset="1" stop-color="#0a0e14" stop-opacity="0"/>
    </radialGradient>
    <radialGradient id="haloIdleWide" cx="0.5" cy="0.5" r="0.5">
      <stop offset="0" stop-color="#6f9bb3" stop-opacity="0.22"/>
      <stop offset="0.6" stop-color="#3a5a6a" stop-opacity="0.08"/>
      <stop offset="1" stop-color="#0a0e14" stop-opacity="0"/>
    </radialGradient>
    <radialGradient id="flameBodyIdle" cx="0.5" cy="0.62" r="0.55">
      <stop offset="0" stop-color="#eafff7" stop-opacity="0.98"/>
      <stop offset="0.3" stop-color="#bff3e6" stop-opacity="0.95"/>
      <stop offset="0.65" stop-color="#7fd6c8" stop-opacity="0.85"/>
      <stop offset="1" stop-color="#4a9aa8" stop-opacity="0.4"/>
    </radialGradient>
    <radialGradient id="coreIdle" cx="0.5" cy="0.5" r="0.5">
      <stop offset="0" stop-color="#ffffff" stop-opacity="1"/>
      <stop offset="0.5" stop-color="#dffff5" stop-opacity="0.95"/>
      <stop offset="1" stop-color="#9fe6d6" stop-opacity="0"/>
    </radialGradient>
    <radialGradient id="emberIdle" cx="0.5" cy="0.5" r="0.5">
      <stop offset="0" stop-color="#cdffef" stop-opacity="0.9"/>
      <stop offset="1" stop-color="#6fb3b3" stop-opacity="0"/>
    </radialGradient>
  </defs>

  <ellipse cx="256" cy="384" rx="220" ry="240" fill="url(#haloIdleWide)"/>
  <ellipse cx="256" cy="372" rx="150" ry="168" fill="url(#haloIdle)"/>

  <path d="M256 250
           C300 300 320 344 320 392
           C320 452 292 500 256 512
           C220 500 192 452 192 392
           C192 344 212 300 256 250 Z"
        fill="url(#flameBodyIdle)"/>

  <path d="M256 296
           C282 332 296 362 296 396
           C296 442 280 476 256 486
           C232 476 216 442 216 396
           C216 362 230 332 256 296 Z"
        fill="#dffff5" fill-opacity="0.55"/>

  <ellipse cx="256" cy="408" rx="60" ry="78" fill="url(#coreIdle)"/>
  <ellipse cx="256" cy="412" rx="22" ry="30" fill="#ffffff" fill-opacity="0.95"/>

  <circle cx="256" cy="236" r="14" fill="url(#emberIdle)"/>
  <circle cx="288" cy="276" r="7" fill="url(#emberIdle)"/>
  <circle cx="226" cy="540" r="9" fill="url(#emberIdle)"/>
  <circle cx="296" cy="556" r="6" fill="url(#emberIdle)"/>
</svg>
