<svg xmlns="http://www.w3.org/2000/svg" viewBox="0 0 512 768">
  <defs>
    <radialGradient id="catFloorShadowW" cx="0.5" cy="0.5" r="0.5">
      <stop offset="0" stop-color="#0a0e14" stop-opacity="0.85"/>
      <stop offset="0.7" stop-color="#0a0e14" stop-opacity="0.4"/>
      <stop offset="1" stop-color="#0a0e14" stop-opacity="0"/>
    </radialGradient>
    <radialGradient id="eyeGlowLW" cx="0.5" cy="0.5" r="0.5">
      <stop offset="0" stop-color="#9ee08a" stop-opacity="0.8"/>
      <stop offset="0.5" stop-color="#5fae5a" stop-opacity="0.25"/>
      <stop offset="1" stop-color="#5fae5a" stop-opacity="0"/>
    </radialGradient>
    <radialGradient id="eyeGlowRW" cx="0.5" cy="0.5" r="0.5">
      <stop offset="0" stop-color="#9ee08a" stop-opacity="0.8"/>
      <stop offset="0.5" stop-color="#5fae5a" stop-opacity="0.25"/>
      <stop offset="1" stop-color="#5fae5a" stop-opacity="0"/>
    </radialGradient>
    <linearGradient id="catBodyW" x1="0" y1="0" x2="0" y2="1">
      <stop offset="0" stop-color="#1e2a3d"/>
      <stop offset="1" stop-color="#080b10"/>
    </linearGradient>
  </defs>

  <ellipse cx="256" cy="612" rx="190" ry="34" fill="url(#catFloorShadowW)"/>

  <g>
    <path d="M150 470 C108 452 70 420 60 372 C56 352 66 342 80 350 C104 364 120 398 134 442 C140 458 146 466 150 470 Z" fill="#10151c"/>
    <path d="M80 350 C70 348 64 356 68 368 C74 366 78 358 80 350 Z" fill="#1e2a3d"/>
  </g>

  <g>
    <path d="M150 540 L156 590 C156 598 144 600 140 592 L130 544 Z" fill="#10151c"/>
    <path d="M150 540 L156 590 C156 596 150 598 146 594 L142 542 Z" fill="#2b3a36" opacity="0.5"/>
    <ellipse cx="148" cy="594" rx="16" ry="9" fill="#080b10"/>
  </g>
  <g>
    <path d="M210 548 L200 596 C198 604 210 606 214 598 L222 552 Z" fill="#10151c"/>
    <ellipse cx="206" cy="600" rx="16" ry="9" fill="#080b10"/>
  </g>

  <g>
    <path d="M168 420 C156 380 188 348 256 348 C330 348 372 384 364 440 C360 472 340 496 312 506 C296 510 248 512 224 508 C194 502 176 470 168 420 Z" fill="url(#catBodyW)"/>
    <path d="M200 360 C240 348 320 352 356 380 C320 366 240 364 200 372 Z" fill="#1e2a3d" opacity="0.6"/>
    <path d="M256 360 C250 410 252 470 256 506 C262 470 264 410 256 360 Z" fill="#2b3a36" opacity="0.3"/>
  </g>

  <g>
    <path d="M318 540 L330 590 C332 598 320 602 314 594 L306 548 Z" fill="#0a0e14"/>
    <ellipse cx="324" cy="596" rx="16" ry="9" fill="#080b10"/>
  </g>
  <g>
    <path d="M370 506 L398 548 C402 556 392 562 384 556 L360 518 Z" fill="#10151c"/>
    <path d="M370 506 L398 548 C400 554 394 558 388 554 L364 516 Z" fill="#1e2a3d" opacity="0.5"/>
    <ellipse cx="392" cy="552" rx="16" ry="9" fill="#080b10"/>
  </g>

  <g>
    <path d="M338 322 C330 286 334 256 354 242 C362 268 360 296 350 316 Z" fill="#10151c"/>
    <path d="M412 314 C424 280 422 250 404 238 C394 262 396 290 404 310 Z" fill="#080b10"/>
    <path d="M344 314 C340 288 342 268 352 258 C358 274 356 294 350 310 Z" fill="#2b3a36" opacity="0.5"/>
    <path d="M414 306 C418 282 416 262 406 254 C400 270 402 290 408 304 Z" fill="#1e2a3d" opacity="0.5"/>

    <path d="M380 256 C330 256 296 290 296 346 C296 404 334 444 384 444 C434 444 470 404 470 348 C470 292 432 256 380 256 Z" fill="url(#catBodyW)"/>
    <path d="M380 262 C340 262 312 286 304 322 C338 304 424 304 458 324 C450 288 420 262 380 262 Z" fill="#1e2a3d" opacity="0.6"/>

    <circle cx="344" cy="348" r="20" fill="url(#eyeGlowLW)"/>
    <circle cx="418" cy="348" r="20" fill="url(#eyeGlowRW)"/>
    <ellipse cx="344" cy="348" rx="12" ry="15" fill="#7fc46a"/>
    <ellipse cx="418" cy="348" rx="12" ry="15" fill="#7fc46a"/>
    <ellipse cx="344" cy="348" rx="4" ry="14" fill="#0a0e14"/>
    <ellipse cx="418" cy="348" rx="4" ry="14" fill="#0a0e14"/>
    <circle cx="340" cy="342" r="2.6" fill="#cdeec0"/>
    <circle cx="414" cy="342" r="2.6" fill="#cdeec0"/>

    <path d="M380 378 L370 388 C372 394 388 394 390 388 Z" fill="#3a4a44"/>
    <path d="M380 388 C378 396 374 400 368 400 M380 388 C382 396 386 400 392 400" stroke="#2b3a36" stroke-width="2.5" fill="none" stroke-linecap="round"/>

    <path d="M324 376 L278 368 M324 384 L280 388 M326 392 L282 406" stroke="#3a4a44" stroke-width="1.5" stroke-linecap="round" opacity="0.7"/>
    <path d="M438 376 L484 368 M438 384 L482 388 M436 392 L480 406" stroke="#3a4a44" stroke-width="1.5" stroke-linecap="round" opacity="0.7"/>
  </g>

  <g>
    <path d="M322 414 C338 432 422 432 438 414 C440 432 436 446 424 452 C404 462 356 462 336 452 C324 446 320 432 322 414 Z" fill="#b3282d"/>
    <path d="M322 414 C338 428 422 428 438 414 C438 422 434 428 426 432 C406 440 354 440 334 432 C326 428 322 422 322 414 Z" fill="#d4444a"/>
    <circle cx="372" cy="456" r="12" fill="#e8a33d"/>
    <circle cx="372" cy="456" r="12" fill="#f0b65a" opacity="0.5"/>
    <path d="M367 452 C369 449 375 449 377 452" stroke="#fff2d8" stroke-width="2.2" fill="none" stroke-linecap="round" opacity="0.7"/>
    <circle cx="372" cy="461" r="2.2" fill="#8a5e1e"/>
  </g>
</svg>
