<svg xmlns="http://www.w3.org/2000/svg" viewBox="0 0 512 768">
  <defs>
    <radialGradient id="shopLantern" cx="50%" cy="50%" r="50%">
      <stop offset="0%" stop-color="#f0b65a" stop-opacity="0.85"/>
      <stop offset="40%" stop-color="#e8a33d" stop-opacity="0.4"/>
      <stop offset="100%" stop-color="#e8a33d" stop-opacity="0"/>
    </radialGradient>
    <radialGradient id="shopWarm" cx="50%" cy="40%" r="60%">
      <stop offset="0%" stop-color="#f0b65a" stop-opacity="0.35"/>
      <stop offset="100%" stop-color="#e8a33d" stop-opacity="0"/>
    </radialGradient>
    <linearGradient id="shopHat" x1="0" y1="0" x2="0" y2="1">
      <stop offset="0%" stop-color="#f0b65a"/>
      <stop offset="100%" stop-color="#e8a33d"/>
    </linearGradient>
  </defs>

  <ellipse cx="256" cy="380" rx="270" ry="360" fill="url(#shopWarm)"/>

  <ellipse cx="256" cy="724" rx="160" ry="26" fill="#0a0e14" fill-opacity="0.55"/>

  <rect x="92" y="120" width="9" height="150" fill="#5a4326"/>
  <path d="M70 270 C70 240 78 222 96 222 C114 222 122 240 122 270 C122 290 108 302 96 302 C84 302 70 290 70 270 Z" fill="#b3282d"/>
  <path d="M74 268 C74 244 82 230 96 230 C110 230 118 244 118 268 C118 286 108 296 96 296 C84 296 74 286 74 268 Z" fill="#e8a33d"/>
  <ellipse cx="96" cy="268" rx="50" ry="60" fill="url(#shopLantern)"/>
  <rect x="86" y="216" width="20" height="10" rx="3" fill="#5a4326"/>
  <rect x="88" y="300" width="16" height="9" rx="3" fill="#5a4326"/>
  <line x1="96" y1="234" x2="96" y2="298" stroke="#c98f34" stroke-width="1.5" stroke-opacity="0.6"/>

  <path d="M236 380 C232 336 234 312 244 290 L300 290 C312 312 314 340 312 384 C320 500 320 620 314 706 L226 706 C222 620 224 500 236 380 Z" fill="#2b3a36"/>
  <path d="M244 290 L300 290 C312 312 314 340 312 384 L236 384 C232 336 234 312 244 290 Z" fill="#36473f"/>

  <path d="M300 300 C340 290 380 296 418 322 C432 332 438 350 432 366 C426 380 408 384 392 376 C360 360 330 356 308 366 Z" fill="#36473f"/>
  <path d="M392 376 C360 360 330 356 308 366 L304 350 C330 342 360 346 392 360 Z" fill="#2b3a36" fill-opacity="0.6"/>
  <ellipse cx="424" cy="340" rx="34" ry="30" fill="#d9b48a"/>
  <path d="M404 332 C404 332 420 320 446 330 C452 332 452 348 446 354 C440 358 430 356 424 350 C418 344 410 338 404 332 Z" fill="#c79a6e"/>
  <ellipse cx="416" cy="338" rx="6" ry="7" fill="#c79a6e"/>
  <ellipse cx="432" cy="334" rx="6" ry="7" fill="#c79a6e"/>
  <ellipse cx="438" cy="350" rx="6" ry="7" fill="#c79a6e"/>
  <ellipse cx="424" cy="356" rx="5" ry="6" fill="#c79a6e"/>

  <circle cx="248" cy="206" r="44" fill="#d9b48a"/>
  <path d="M204 202 C204 176 224 160 248 160 C272 160 292 176 292 202 C292 202 280 194 248 194 C216 194 204 202 204 202 Z" fill="#3a2c1c"/>
  <ellipse cx="234" cy="208" rx="5" ry="6" fill="#1e2a3d"/>
  <ellipse cx="264" cy="208" rx="5" ry="6" fill="#1e2a3d"/>
  <path d="M226 196 C230 192 238 192 242 195" stroke="#3a2c1c" stroke-width="2.5" fill="none" stroke-linecap="round"/>
  <path d="M256 195 C260 192 268 192 272 196" stroke="#3a2c1c" stroke-width="2.5" fill="none" stroke-linecap="round"/>
  <ellipse cx="226" cy="222" rx="8" ry="5" fill="#e8a33d" fill-opacity="0.45"/>
  <ellipse cx="272" cy="222" rx="8" ry="5" fill="#e8a33d" fill-opacity="0.45"/>
  <path d="M236 228 C244 238 258 238 264 226" stroke="#8a4a3a" stroke-width="3.5" fill="none" stroke-linecap="round"/>

  <path d="M170 164 C170 116 207 92 248 92 C289 92 326 116 326 164 C326 164 294 146 248 146 C202 146 170 164 170 164 Z" fill="url(#shopHat)"/>
  <path d="M140 166 C140 166 192 146 248 146 C304 146 356 166 356 166 C356 174 312 192 248 192 C184 192 140 174 140 166 Z" fill="#e8a33d"/>
  <path d="M140 166 C140 166 192 148 248 148 C304 148 356 166 356 166 C356 170 312 184 248 184 C184 184 140 170 140 166 Z" fill="#f0b65a"/>
  <path d="M248 92 L214 164" stroke="#c98f34" stroke-width="2" stroke-opacity="0.6"/>
  <path d="M248 92 L282 164" stroke="#c98f34" stroke-width="2" stroke-opacity="0.6"/>
  <path d="M202 112 L188 168" stroke="#c98f34" stroke-width="1.5" stroke-opacity="0.5"/>
  <path d="M294 112 L308 168" stroke="#c98f34" stroke-width="1.5" stroke-opacity="0.5"/>

  <path d="M224 192 C222 226 224 246 232 252" stroke="#b07a28" stroke-width="4" fill="none" stroke-linecap="round"/>
  <path d="M272 192 C274 226 272 246 264 252" stroke="#b07a28" stroke-width="4" fill="none" stroke-linecap="round"/>
</svg>
